<svg version="1.1" id="Layer_1" xmlns="http://www.w3.org/2000/svg" xmlns:xlink="http://www.w3.org/1999/xlink" x="0px" y="0px"
	 viewBox="0 0 51.2 51.2" enable-background="new 0 0 51.2 51.2" xml:space="preserve">
<rect id="j2-icon-bkg" fill="#626366" width="51.2" height="51.2"/>
<g>
	<path fill="#323031" d="M23.7,27.6c0,0.4-0.1,0.7-0.2,1.1c-0.1,0.3-0.3,0.6-0.5,0.9c-0.2,0.3-0.5,0.5-0.9,0.6
		c-0.3,0.2-0.8,0.2-1.2,0.2c-0.7,0-1.3-0.2-1.8-0.5c-0.5-0.3-0.8-0.9-0.9-1.6l1.5-0.4c0.1,0.3,0.2,0.5,0.4,0.7
		c0.2,0.2,0.4,0.3,0.7,0.3c0.5,0,0.8-0.2,1-0.5s0.3-0.8,0.3-1.3v-6.2h1.6V27.6z"/>
	<path fill="#323031" d="M26.1,28.5l3.6-3.5c0.1-0.1,0.2-0.2,0.3-0.3c0.1-0.1,0.2-0.2,0.3-0.4c0.1-0.1,0.2-0.3,0.2-0.4
		c0.1-0.1,0.1-0.3,0.1-0.4c0-0.2,0-0.4-0.1-0.5c-0.1-0.1-0.2-0.3-0.3-0.4c-0.1-0.1-0.3-0.2-0.4-0.2c-0.2-0.1-0.3-0.1-0.5-0.1
		c-0.4,0-0.7,0.1-1,0.3c-0.3,0.2-0.4,0.5-0.5,0.9l-1.6-0.1c0-0.4,0.1-0.8,0.3-1.1s0.4-0.6,0.7-0.8c0.3-0.2,0.6-0.4,0.9-0.5
		c0.4-0.1,0.7-0.2,1.2-0.2s0.8,0.1,1.2,0.2c0.4,0.1,0.7,0.3,0.9,0.5c0.3,0.2,0.5,0.5,0.6,0.8c0.2,0.3,0.2,0.7,0.2,1.2
		c0,0.6-0.1,1.1-0.4,1.5c-0.3,0.4-0.6,0.8-1,1.2L28,28.7h4.3v1.4h-6.2V28.5z"/>
</g>
</svg>
