<svg version="1.1" xmlns="http://www.w3.org/2000/svg" x="0" y="0" width="143.86" height="15.356" viewBox="0 0 143.86 15.356" xml:space="preserve"><g fill="#DADBDB"><path d="M0 9.47l.342-.486c.288.333.837.62 1.43.62.667 0 1.036-.313 1.036-.746 0-1.053-2.69-.405-2.69-2.017 0-.683.575-1.25 1.61-1.25.747 0 1.27.28 1.61.63l-.313.468c-.26-.314-.73-.55-1.296-.55-.595 0-.964.298-.964.685 0 .945 2.692.324 2.692 2.017 0 .73-.585 1.314-1.702 1.314-.72 0-1.315-.225-1.756-.684zM4.437 4.627c0-.252.207-.46.46-.46.25 0 .45.208.45.46s-.2.45-.45.45c-.253 0-.46-.198-.46-.45zm.117 5.42v-4.35h.675v4.35h-.676zM6.714 9.137V6.292h-.72v-.594h.72V4.51H7.4v1.188h.88v.594h-.882v2.7c0 .324.144.56.432.56.198 0 .37-.09.46-.19l.197.514c-.17.162-.415.28-.8.28-.65 0-.973-.37-.973-1.02zM8.973 7.868c0-1.26.9-2.278 2.143-2.278 1.314 0 2.088 1.026 2.088 2.332v.172h-3.51c.053.818.62 1.503 1.556 1.503.504 0 1-.198 1.35-.558l.325.44c-.44.432-1.026.675-1.73.675-1.295 0-2.222-.928-2.222-2.287zm2.133-1.72c-.927 0-1.386.783-1.422 1.44h2.854c-.01-.638-.44-1.44-1.432-1.44zM17.298 9.39V11.7h-.675V5.698h.675v.648c.315-.44.855-.756 1.467-.756 1.143 0 1.936.864 1.936 2.278 0 1.404-.79 2.287-1.935 2.287-.594 0-1.107-.288-1.467-.766zm2.69-1.522c0-.963-.52-1.674-1.394-1.674-.53 0-1.062.315-1.296.693V8.85c.234.378.765.702 1.296.702.873 0 1.395-.72 1.395-1.684zM21.77 10.046V5.698h.676v.693c.35-.45.855-.79 1.45-.79v.692c-.082-.01-.163-.018-.262-.018-.423 0-.99.342-1.188.693v3.08h-.675zM24.49 7.868c0-1.26.827-2.278 2.15-2.278s2.152 1.018 2.152 2.278-.83 2.287-2.152 2.287-2.15-1.027-2.15-2.287zm3.59 0c0-.882-.512-1.674-1.44-1.674s-1.44.79-1.44 1.674c0 .892.513 1.684 1.44 1.684s1.44-.793 1.44-1.684zM32.823 10.046v-.612c-.333.378-.9.72-1.548.72-.91 0-1.386-.45-1.386-1.386v-3.07h.674V8.56c0 .766.387.99.98.99.523 0 1.027-.305 1.28-.656V5.698h.674v4.348h-.675zM37.998 10.046v-.648c-.324.44-.855.757-1.467.757-1.133 0-1.935-.864-1.935-2.278 0-1.396.8-2.287 1.936-2.287.586 0 1.117.288 1.468.766V4.042h.675v6.005h-.675zm0-1.188V6.896c-.234-.378-.765-.702-1.296-.702-.882 0-1.404.72-1.404 1.684s.522 1.674 1.404 1.674c.53 0 1.062-.316 1.296-.694zM40.022 10.046V4.042h.675v6.005h-.675zM41.912 11.135c.1.046.26.072.37.072.296 0 .494-.1.647-.46l.287-.656-1.82-4.392h.74l1.44 3.565 1.45-3.565h.728l-2.18 5.23c-.26.63-.7.874-1.277.883-.144 0-.37-.026-.486-.062l.1-.613zM51.94 10.046v-.648c-.325.44-.856.757-1.468.757-1.135 0-1.936-.864-1.936-2.278 0-1.396.8-2.287 1.936-2.287.585 0 1.116.288 1.467.766V4.042h.674v6.005h-.675zm0-1.188V6.896c-.235-.378-.766-.702-1.297-.702-.882 0-1.404.72-1.404 1.684s.52 1.674 1.403 1.674c.53 0 1.062-.316 1.296-.694zM53.71 7.868c0-1.26.9-2.278 2.144-2.278 1.314 0 2.088 1.026 2.088 2.332v.172h-3.51c.053.818.62 1.503 1.556 1.503.504 0 1-.198 1.35-.558l.325.44c-.44.432-1.026.675-1.73.675-1.295 0-2.222-.928-2.222-2.287zm2.134-1.72c-.927 0-1.386.783-1.422 1.44h2.854c-.01-.638-.442-1.44-1.432-1.44zM58.66 9.47l.343-.486c.288.333.837.62 1.43.62.667 0 1.036-.313 1.036-.746 0-1.053-2.692-.405-2.692-2.017 0-.683.576-1.25 1.61-1.25.748 0 1.27.28 1.612.63l-.315.468c-.26-.315-.73-.55-1.296-.55-.595 0-.964.298-.964.685 0 .945 2.692.324 2.692 2.017 0 .73-.585 1.314-1.702 1.314-.72 0-1.314-.225-1.755-.684zM63.098 4.627c0-.252.207-.46.46-.46.25 0 .45.208.45.46s-.2.45-.45.45c-.253 0-.46-.198-.46-.45zm.117 5.42v-4.35h.675v4.35h-.675zM65.23 11.154l.342-.486c.36.423.792.585 1.414.585.72 0 1.404-.35 1.404-1.27v-.657c-.324.44-.855.774-1.467.774-1.134 0-1.936-.846-1.936-2.25 0-1.396.792-2.26 1.936-2.26.585 0 1.116.288 1.467.766v-.658h.675v4.285c0 1.378-1.018 1.828-2.08 1.828-.728 0-1.232-.143-1.755-.656zm3.16-2.36V6.887c-.242-.37-.764-.693-1.295-.693-.882 0-1.404.693-1.404 1.656 0 .954.523 1.647 1.405 1.647.53 0 1.052-.324 1.296-.702zM73.358 10.046V7.202c0-.774-.396-1.008-.98-1.008-.532 0-1.027.324-1.288.675v3.177h-.675v-4.35h.675v.63c.306-.368.9-.737 1.557-.737.9 0 1.378.46 1.378 1.405v3.052h-.667zM75.13 7.868c0-1.26.9-2.278 2.143-2.278 1.314 0 2.09 1.026 2.09 2.332v.172H75.85c.055.818.622 1.503 1.56 1.503.503 0 .998-.198 1.35-.558l.323.44c-.44.432-1.026.675-1.73.675-1.295 0-2.223-.928-2.223-2.287zm2.134-1.72c-.927 0-1.387.783-1.422 1.44h2.854c-.01-.638-.442-1.44-1.432-1.44zM83.6 10.046v-.648c-.323.44-.854.757-1.467.757-1.134 0-1.936-.864-1.936-2.278 0-1.396.802-2.287 1.936-2.287.586 0 1.116.288 1.468.766V4.042h.676v6.005H83.6zm0-1.188V6.896c-.233-.378-.765-.702-1.296-.702-.882 0-1.404.72-1.404 1.684s.522 1.674 1.404 1.674c.53 0 1.062-.316 1.297-.694zM89.783 7.247v1.918h-.513V7.247h-1.73v-.47h1.73V4.916h.514v1.863h1.73v.468h-1.73zM94.776 10.046V4.042h.676v2.314c.35-.478.882-.766 1.467-.766 1.143 0 1.936.892 1.936 2.287 0 1.414-.802 2.278-1.937 2.278-.612 0-1.144-.315-1.468-.757v.648h-.676zm1.982-.495c.873 0 1.395-.71 1.395-1.673s-.52-1.684-1.395-1.684c-.54 0-1.072.324-1.306.702v1.97c.234.38.765.686 1.306.686zM102.888 10.046v-.612c-.333.378-.9.72-1.55.72-.908 0-1.386-.45-1.386-1.386v-3.07h.676V8.56c0 .766.387.99.98.99.522 0 1.027-.305 1.28-.656V5.698h.674v4.348h-.674zM104.795 4.627c0-.252.207-.46.46-.46s.45.208.45.46-.2.45-.45.45-.46-.198-.46-.45zm.116 5.42v-4.35h.677v4.35h-.676zM106.936 10.046V4.042h.676v6.005h-.676zM109.097 9.137V6.292h-.72v-.594h.72V4.51h.684v1.188h.884v.594h-.883v2.7c0 .324.146.56.434.56.198 0 .37-.09.46-.19l.197.514c-.17.162-.413.28-.8.28-.65 0-.973-.37-.973-1.02zM113.938 10.046V4.042h.676v2.314c.35-.478.882-.766 1.467-.766 1.145 0 1.937.892 1.937 2.287 0 1.414-.8 2.278-1.936 2.278-.61 0-1.142-.315-1.466-.757v.648h-.676zm1.98-.495c.874 0 1.396-.71 1.396-1.673s-.52-1.684-1.395-1.684c-.542 0-1.072.324-1.307.702v1.97c.235.38.765.686 1.306.686zM118.978 11.135c.1.046.26.072.37.072.296 0 .494-.1.647-.46l.288-.656-1.818-4.392h.738l1.44 3.565 1.45-3.565h.728l-2.178 5.23c-.262.63-.702.874-1.278.883-.145 0-.37-.026-.486-.062l.1-.613z"/></g><path fill="#DADBDB" d="M143.86 15.356h-15.355V0h15.355v15.356zm-14.527-.827h13.7V.826h-13.7V14.53z"/><path fill="#DADBDB" d="M135.47 9.256c-.036.22-.12.425-.25.616-.132.19-.32.35-.565.48s-.578.19-.997.19c-.235 0-.463-.032-.682-.098-.22-.064-.416-.167-.59-.306-.173-.14-.31-.317-.416-.534-.104-.217-.156-.48-.156-.79v-.483h1.113v.252c0 .136.012.26.032.377.02.113.057.212.11.293.05.08.123.145.214.19.092.048.21.072.357.072.163 0 .288-.03.378-.086.09-.06.152-.134.19-.225.04-.093.064-.19.072-.3s.012-.21.012-.31v-3.78h1.232V8.65c0 .183-.017.385-.054.604M136.467 6.16c.083-.27.21-.505.377-.706.167-.2.378-.358.63-.47.254-.113.546-.17.876-.17.25 0 .49.04.718.118.228.08.428.19.6.337.174.146.31.327.412.54.103.215.154.456.154.723 0 .277-.045.515-.134.714-.09.2-.207.375-.354.53-.146.154-.312.294-.498.42-.186.125-.373.25-.562.372s-.37.254-.55.396c-.178.14-.334.306-.47.494h2.598v.958h-4.033c0-.32.046-.598.138-.832.093-.236.216-.446.373-.633.158-.186.342-.356.555-.514.21-.158.435-.318.67-.48.12-.083.25-.17.385-.255s.26-.182.373-.287c.11-.104.206-.222.282-.353.075-.13.114-.28.114-.447 0-.267-.08-.475-.232-.624-.155-.15-.354-.223-.593-.223-.162 0-.3.04-.41.115-.115.075-.205.175-.273.298-.066.123-.116.26-.145.408-.028.15-.043.298-.043.444h-1.066c-.01-.313.026-.604.11-.874"/></svg>