<svg id="Layer_1" xmlns="http://www.w3.org/2000/svg" viewBox="0 0 51.2 51.2"><path id="j2-icon-bkg" fill="#626366" d="M0 0h51.2v51.2H0z"/><g fill="#323031"><path d="M23.7 27.6c0 .4-.1.7-.2 1.1-.1.3-.3.6-.5.9-.2.3-.5.5-.9.6-.3.2-.8.2-1.2.2-.7 0-1.3-.2-1.8-.5s-.8-.9-.9-1.6l1.5-.4c.1.3.2.5.4.7.2.2.4.3.7.3.5 0 .8-.2 1-.5s.3-.8.3-1.3v-6.2h1.6v6.7zM26.1 28.5l3.6-3.5.3-.3c.1-.1.2-.2.3-.4.1-.1.2-.3.2-.4.1-.1.1-.3.1-.4 0-.2 0-.4-.1-.5-.1-.1-.2-.3-.3-.4-.1-.1-.3-.2-.4-.2-.2-.1-.3-.1-.5-.1-.4 0-.7.1-1 .3-.3.2-.4.5-.5.9l-1.6-.1c0-.4.1-.8.3-1.1s.4-.6.7-.8c.3-.2.6-.4.9-.5.4-.1.7-.2 1.2-.2s.8.1 1.2.2c.4.1.7.3.9.5.3.2.5.5.6.8.2.3.2.7.2 1.2 0 .6-.1 1.1-.4 1.5-.3.4-.6.8-1 1.2L28 28.7h4.3v1.4h-6.2v-1.6z"/></g></svg>